<svg width="95px" height="95px" viewBox="0 0 60.8 60.8" id="Layer_1" version="1.1" xml:space="preserve" xmlns="http://www.w3.org/2000/svg" xmlns:xlink="http://www.w3.org/1999/xlink"><style type="text/css">.st0{fill:#2B79C2;}
	.st1{fill:#3B4652;}</style><g><path class="st0" d="M18.442 19.238v22.325c0 0.439 0.356 0.807 0.807 0.807h22.325c0.439 0 0.807 -0.356 0.807 -0.807V19.238c0 -0.439 -0.356 -0.807 -0.807 -0.807H19.238c-0.439 0.012 -0.796 0.368 -0.796 0.807m4.513 4.513c0 -0.439 0.356 -0.807 0.807 -0.807h13.3c0.439 0 0.807 0.356 0.807 0.807v13.3c0 0.439 -0.356 0.807 -0.807 0.807H23.75c-0.439 0 -0.807 -0.356 -0.807 -0.807V23.75z"/><path class="st1" d="M29.569 9.583v5.035c0 0.463 0.368 0.831 0.831 0.831s0.831 -0.368 0.831 -0.831V9.583c1.33 -0.368 2.304 -1.579 2.304 -3.016 0 -1.722 -1.401 -3.135 -3.135 -3.135s-3.135 1.401 -3.135 3.135c0 1.437 0.974 2.66 2.304 3.016m0.831 -4.489c0.807 0 1.472 0.665 1.472 1.472s-0.665 1.472 -1.472 1.472 -1.472 -0.665 -1.472 -1.472 0.665 -1.472 1.472 -1.472"/><path class="st1" d="M39.758 3.432c-1.722 0 -3.135 1.401 -3.135 3.135 0 1.437 0.974 2.648 2.304 3.016v5.035c0 0.463 0.368 0.831 0.831 0.831s0.831 -0.368 0.831 -0.831V9.583c1.33 -0.368 2.304 -1.579 2.304 -3.016 -0.012 -1.722 -1.413 -3.135 -3.135 -3.135m0 4.607c-0.807 0 -1.472 -0.665 -1.472 -1.472s0.665 -1.472 1.472 -1.472 1.472 0.665 1.472 1.472 -0.665 1.472 -1.472 1.472"/><path class="st1" d="M20.223 9.583v5.035c0 0.463 0.368 0.831 0.831 0.831s0.831 -0.368 0.831 -0.831V9.583c1.33 -0.368 2.304 -1.579 2.304 -3.016 0 -1.722 -1.401 -3.135 -3.135 -3.135s-3.135 1.401 -3.135 3.135c0 1.437 0.974 2.66 2.304 3.016m0.831 -4.489c0.807 0 1.472 0.665 1.472 1.472s-0.665 1.472 -1.472 1.472 -1.472 -0.665 -1.472 -1.472 0.653 -1.472 1.472 -1.472"/><path class="st1" d="M31.231 51.217v-5.035c0 -0.463 -0.368 -0.831 -0.831 -0.831s-0.831 0.368 -0.831 0.831v5.035c-1.33 0.368 -2.304 1.579 -2.304 3.016 0 1.722 1.401 3.135 3.135 3.135s3.135 -1.401 3.135 -3.135c0 -1.437 -0.974 -2.66 -2.304 -3.016m-0.831 4.489c-0.807 0 -1.472 -0.665 -1.472 -1.472s0.665 -1.472 1.472 -1.472 1.472 0.665 1.472 1.472 -0.665 1.472 -1.472 1.472"/><path class="st1" d="M40.589 51.217v-5.035c0 -0.463 -0.368 -0.831 -0.831 -0.831s-0.831 0.368 -0.831 0.831v5.035c-1.33 0.368 -2.304 1.579 -2.304 3.016 0 1.722 1.401 3.135 3.135 3.135s3.135 -1.401 3.135 -3.135c-0.012 -1.437 -0.986 -2.66 -2.304 -3.016m-0.831 4.489c-0.807 0 -1.472 -0.665 -1.472 -1.472s0.665 -1.472 1.472 -1.472 1.472 0.665 1.472 1.472 -0.665 1.472 -1.472 1.472"/><path class="st1" d="M21.886 51.217v-5.035c0 -0.463 -0.368 -0.831 -0.831 -0.831s-0.831 0.368 -0.831 0.831v5.035c-1.33 0.368 -2.304 1.579 -2.304 3.016 0 1.722 1.401 3.135 3.135 3.135s3.135 -1.401 3.135 -3.135c-0.012 -1.437 -0.986 -2.66 -2.304 -3.016m-0.831 4.489c-0.807 0 -1.472 -0.665 -1.472 -1.472s0.665 -1.472 1.472 -1.472 1.472 0.665 1.472 1.472 -0.665 1.472 -1.472 1.472"/><path class="st1" d="M54.233 27.265c-1.437 0 -2.648 0.974 -3.016 2.304h-5.035c-0.463 0 -0.831 0.368 -0.831 0.831s0.368 0.831 0.831 0.831h5.035c0.368 1.33 1.579 2.304 3.016 2.304 1.722 0 3.135 -1.401 3.135 -3.135s-1.413 -3.135 -3.135 -3.135m0 4.607c-0.807 0 -1.472 -0.665 -1.472 -1.472s0.665 -1.472 1.472 -1.472 1.472 0.665 1.472 1.472 -0.665 1.472 -1.472 1.472"/><path class="st1" d="M54.233 36.622c-1.437 0 -2.648 0.974 -3.016 2.304h-5.035c-0.463 0 -0.831 0.368 -0.831 0.831s0.368 0.831 0.831 0.831h5.035c0.368 1.33 1.579 2.304 3.016 2.304 1.722 0 3.135 -1.401 3.135 -3.135s-1.413 -3.135 -3.135 -3.135m0 4.596c-0.807 0 -1.472 -0.665 -1.472 -1.472s0.665 -1.472 1.472 -1.472 1.472 0.665 1.472 1.472 -0.665 1.472 -1.472 1.472"/><path class="st1" d="M46.182 21.886h5.035c0.368 1.33 1.579 2.304 3.016 2.304 1.722 0 3.135 -1.401 3.135 -3.135s-1.401 -3.135 -3.135 -3.135c-1.437 0 -2.648 0.974 -3.016 2.304h-5.035c-0.463 0 -0.831 0.368 -0.831 0.831s0.368 0.831 0.831 0.831m8.051 -2.304c0.807 0 1.472 0.665 1.472 1.472s-0.665 1.472 -1.472 1.472 -1.472 -0.665 -1.472 -1.472 0.665 -1.472 1.472 -1.472"/><path class="st1" d="M14.618 29.569H9.583c-0.368 -1.33 -1.579 -2.304 -3.016 -2.304 -1.722 0 -3.135 1.401 -3.135 3.135s1.401 3.135 3.135 3.135c1.437 0 2.648 -0.974 3.016 -2.304h5.035c0.463 0 0.831 -0.368 0.831 -0.831s-0.368 -0.831 -0.831 -0.831m-8.051 2.304c-0.807 0 -1.472 -0.665 -1.472 -1.472s0.665 -1.472 1.472 -1.472 1.472 0.665 1.472 1.472 -0.665 1.472 -1.472 1.472"/><path class="st1" d="M14.618 38.926H9.583c-0.368 -1.33 -1.579 -2.304 -3.016 -2.304 -1.722 0 -3.135 1.401 -3.135 3.135s1.401 3.135 3.135 3.135c1.437 0 2.648 -0.974 3.016 -2.304h5.035c0.463 0 0.831 -0.368 0.831 -0.831s-0.368 -0.831 -0.831 -0.831m-8.051 2.292c-0.807 0 -1.472 -0.665 -1.472 -1.472s0.665 -1.472 1.472 -1.472 1.472 0.665 1.472 1.472 -0.665 1.472 -1.472 1.472"/><path class="st1" d="M14.618 20.223H9.583c-0.368 -1.33 -1.579 -2.304 -3.016 -2.304 -1.722 0 -3.135 1.401 -3.135 3.135s1.401 3.135 3.135 3.135c1.437 0 2.648 -0.974 3.016 -2.304h5.035c0.463 0 0.831 -0.368 0.831 -0.831s-0.368 -0.831 -0.831 -0.831m-8.051 2.292c-0.807 0 -1.472 -0.665 -1.472 -1.472s0.665 -1.472 1.472 -1.472 1.472 0.665 1.472 1.472 -0.665 1.472 -1.472 1.472"/></g></svg>