<svg width="90px" height="90px" viewBox="0 0 2.7 2.7" xmlns="http://www.w3.org/2000/svg" xmlns:xlink="http://www.w3.org/1999/xlink"><defs><style>.cls-1,.cls-2,.cls-8{fill:#2683fb;}.cls-1,.cls-3,.cls-5{clip-rule:evenodd;}.cls-11,.cls-3,.cls-4{fill:#a6cafd;}.cls-14,.cls-5,.cls-6{fill:#559cfc;}.cls-7{fill:none;}.cls-11,.cls-14,.cls-8{fill-rule:evenodd;}.cls-9{clip-path:url(#clip-path);}.cls-10{clip-path:url(#clip-path-2);}.cls-12{clip-path:url(#clip-path-3);}.cls-13{clip-path:url(#clip-path-4);}.cls-15{clip-path:url(#clip-path-5);}.cls-16{clip-path:url(#clip-path-6);}.cls-17{clip-path:url(#clip-path-7);}.cls-18{clip-path:url(#clip-path-9);}</style><clipPath id="clip-path"><path class="cls-1" d="M2.025 1.238v0.225h0.338a0.113 0.113 0 0 0 0.113 -0.113 0.113 0.113 0 0 0 -0.113 -0.113Z"/></clipPath><clipPath id="clip-path-2"><path class="cls-2" width="24" height="24" d="M0 0H2.7V2.7H0V0z"/></clipPath><clipPath id="clip-path-3"><path class="cls-3" d="M0.225 0.9v0.113h1.064a0.113 0.113 0 0 1 0.095 0.051l0.15 0.225a0.113 0.113 0 0 1 0 0.125l-0.15 0.225a0.113 0.113 0 0 1 -0.095 0.051H0.225v0.113a0.113 0.113 0 0 0 0.113 0.113h1.064a0.113 0.113 0 0 0 0.095 -0.051L1.688 1.575h0.225a0.113 0.113 0 0 0 0.113 -0.113v-0.225a0.113 0.113 0 0 0 -0.113 -0.113h-0.225l-0.191 -0.287a0.113 0.113 0 0 0 -0.095 -0.051H0.338a0.113 0.113 0 0 0 -0.113 0.113"/></clipPath><clipPath id="clip-path-4"><path class="cls-4" width="24" height="24" d="M0 0H2.7V2.7H0V0z"/></clipPath><clipPath id="clip-path-5"><path class="cls-5" d="M1.688 2.025h-0.389a0.113 0.113 0 0 1 -0.095 -0.051L0.9 1.513a0.113 0.113 0 0 0 -0.098 -0.051H0.225v0.225h0.225v-0.113h0.164a0.113 0.113 0 0 1 0.095 0.051l0.383 0.574a0.113 0.113 0 0 0 0.095 0.051H1.8a0.113 0.113 0 0 0 0.113 -0.113v-0.225h0.45a0.113 0.113 0 0 0 0.113 -0.113 0.113 0.113 0 0 0 -0.113 -0.113h-0.563a0.113 0.113 0 0 0 -0.113 0.113Z"/></clipPath><clipPath id="clip-path-6"><path class="cls-6" width="24" height="24" d="M0 0H2.7V2.7H0V0z"/></clipPath><clipPath id="clip-path-7"><path class="cls-5" d="M1.913 0.787V0.563a0.113 0.113 0 0 0 -0.113 -0.113h-0.614a0.113 0.113 0 0 0 -0.095 0.051l-0.383 0.574a0.113 0.113 0 0 1 -0.095 0.051H0.45V1.012H0.225v0.225h0.577a0.113 0.113 0 0 0 0.098 -0.051l0.308 -0.461a0.113 0.113 0 0 1 0.09 -0.051H1.688v0.225a0.113 0.113 0 0 0 0.113 0.113h0.563a0.113 0.113 0 0 0 0.113 -0.113 0.113 0.113 0 0 0 -0.113 -0.113Z"/></clipPath><clipPath id="clip-path-9"><path class="cls-2" cx="10.5" cy="12" r="1.25" d="M1.322 1.35A0.141 0.141 0 0 1 1.181 1.491A0.141 0.141 0 0 1 1.041 1.35A0.141 0.141 0 0 1 1.322 1.35z"/></clipPath></defs><title>Icon_24px_CloudIoTEdge_Color</title><g data-name="Product Icons"><g data-name="colored-32/cloud-iot-edge"><g><path id="Rectangle" class="cls-7" width="24" height="24" d="M0 0H2.7V2.7H0V0z"/></g></g><path class="cls-8" d="M2.025 1.238v0.225h0.338a0.113 0.113 0 0 0 0.113 -0.113 0.113 0.113 0 0 0 -0.113 -0.113Z"/><g class="cls-9"><path class="cls-2" width="24" height="24" d="M0 0H2.7V2.7H0V0z"/><g class="cls-10"><path class="cls-2" x="14" y="6" width="13" height="12" d="M1.575 0.675H3.038V2.025H1.575V0.675z"/></g></g><path class="cls-11" d="M0.225 0.9v0.113h1.064a0.113 0.113 0 0 1 0.095 0.051l0.15 0.225a0.113 0.113 0 0 1 0 0.125l-0.15 0.225a0.113 0.113 0 0 1 -0.095 0.051H0.225v0.113a0.113 0.113 0 0 0 0.113 0.113h1.064a0.113 0.113 0 0 0 0.095 -0.051L1.688 1.575h0.225a0.113 0.113 0 0 0 0.113 -0.113v-0.225a0.113 0.113 0 0 0 -0.113 -0.113h-0.225l-0.191 -0.287a0.113 0.113 0 0 0 -0.095 -0.051H0.338a0.113 0.113 0 0 0 -0.113 0.113"/><g class="cls-12"><path class="cls-4" width="24" height="24" d="M0 0H2.7V2.7H0V0z"/><g class="cls-13"><path class="cls-4" x="-3" y="2" width="27" height="20" d="M-0.338 0.225H2.7V2.475H-0.338V0.225z"/></g></g><path class="cls-14" d="M1.688 2.025h-0.389a0.113 0.113 0 0 1 -0.095 -0.051L0.9 1.513a0.113 0.113 0 0 0 -0.098 -0.051H0.225v0.225h0.225v-0.113h0.164a0.113 0.113 0 0 1 0.095 0.051l0.383 0.574a0.113 0.113 0 0 0 0.095 0.051H1.8a0.113 0.113 0 0 0 0.113 -0.113v-0.225h0.45a0.113 0.113 0 0 0 0.113 -0.113 0.113 0.113 0 0 0 -0.113 -0.113h-0.563a0.113 0.113 0 0 0 -0.113 0.113Z"/><g class="cls-15"><path class="cls-6" width="24" height="24" d="M0 0H2.7V2.7H0V0z"/><g class="cls-16"><path class="cls-6" x="-3" y="8" width="30" height="17" d="M-0.338 0.9H3.038V2.813H-0.338V0.9z"/></g></g><path class="cls-14" d="M1.913 0.787V0.563a0.113 0.113 0 0 0 -0.113 -0.113h-0.614a0.113 0.113 0 0 0 -0.095 0.051l-0.383 0.574a0.113 0.113 0 0 1 -0.095 0.051H0.45V1.012H0.225v0.225h0.577a0.113 0.113 0 0 0 0.098 -0.051l0.308 -0.461a0.113 0.113 0 0 1 0.09 -0.051H1.688v0.225a0.113 0.113 0 0 0 0.113 0.113h0.563a0.113 0.113 0 0 0 0.113 -0.113 0.113 0.113 0 0 0 -0.113 -0.113Z"/><g class="cls-17"><path class="cls-6" width="24" height="24" d="M0 0H2.7V2.7H0V0z"/><g class="cls-16"><path class="cls-6" x="-3" y="-1" width="30" height="17" d="M-0.338 -0.113H3.038V1.8H-0.338V-0.113z"/></g></g><path class="cls-2" cx="10.5" cy="12" r="1.25" d="M1.322 1.35A0.141 0.141 0 0 1 1.181 1.491A0.141 0.141 0 0 1 1.041 1.35A0.141 0.141 0 0 1 1.322 1.35z"/><g class="cls-18"><path class="cls-2" width="24" height="24" d="M0 0H2.7V2.7H0V0z"/><g class="cls-10"><path class="cls-2" x="4.25" y="5.75" width="12.5" height="12.5" d="M0.478 0.647H1.884V2.053H0.478V0.647z"/></g></g><path class="cls-2" x="2" y="18" width="6.52" height="2" rx="0.97" d="M0.334 2.025H0.849A0.109 0.109 0 0 1 0.959 2.134V2.141A0.109 0.109 0 0 1 0.849 2.25H0.334A0.109 0.109 0 0 1 0.225 2.141V2.134A0.109 0.109 0 0 1 0.334 2.025z"/><path class="cls-2" x="2" y="4" width="6.52" height="2" rx="0.97" d="M0.334 0.45H0.849A0.109 0.109 0 0 1 0.959 0.559V0.566A0.109 0.109 0 0 1 0.849 0.675H0.334A0.109 0.109 0 0 1 0.225 0.566V0.559A0.109 0.109 0 0 1 0.334 0.45z"/></g></svg>