<svg xmlns="http://www.w3.org/2000/svg"  viewBox="0 0 48 48" width="50px" height="50px" baseProfile="basic"><path fill="#52cccc" d="M6.75,38.25V9.75c1.172-1.172,1.828-1.828,3-3h28.5c1.172,1.172,1.828,1.828,3,3v28.5	c-1.172,1.172-1.828,1.828-3,3H9.75C8.578,40.078,7.922,39.422,6.75,38.25z" opacity=".15"/><path fill="#52cccc" d="M42.5,16V9.232L38.768,5.5H32l-1,1H17l-1-1H9.232L5.5,9.232V16l1,1v14l-1,1v6.768L9.232,42.5H16l1-1	h14l1,1h6.768l3.732-3.732V32l-1-1V17L42.5,16z M7,38.146V9.854L9.854,7h28.293L41,9.854v28.293L38.146,41H9.854L7,38.146z"/><path fill="#52cccc" d="M11.241,10h-0.5V8h0.5V10z M12.48,8h-0.5v2h0.5V8z M13.719,8h-0.5v2h0.5V8z M14.958,8	h-0.5v2h0.5V8z M16.197,8h-0.5v2h0.5V8z M17.436,8h-0.5v2h0.5V8z M18.675,8h-0.5v2h0.5V8z M19.914,8h-0.5v2h0.5V8z M21.152,8h-0.5v2	h0.5V8z M22.392,8h-0.5v2h0.5V8z M23.631,8h-0.5v2h0.5V8z M24.869,8h-0.5v2h0.5V8z M26.108,8h-0.5v2h0.5V8z M27.348,8h-0.5v2h0.5V8z M28.586,8h-0.5v2h0.5V8z M29.825,8h-0.5v2h0.5V8z M31.064,8h-0.5v2h0.5V8z M32.303,8h-0.5v2h0.5V8z M33.542,8h-0.5v2h0.5V8z M34.781,8h-0.5v2h0.5V8z M36.02,8h-0.5v2h0.5V8z M37.259,8h-0.5v2h0.5V8z M40.104,8.25L39.75,7.896L37.896,9.75l0.354,0.354	L40.104,8.25z M40,10.741h-2v0.5h2V10.741z M40,11.98h-2v0.5h2V11.98z M40,13.219h-2v0.5h2V13.219z M40,14.458h-2v0.5h2V14.458z M40,15.697h-2v0.5h2V15.697z M40,16.936h-2v0.5h2V16.936z M40,18.175h-2v0.5h2V18.175z M40,19.414h-2v0.5h2V19.414z M40,20.652h-2	v0.5h2V20.652z M40,21.892h-2v0.5h2V21.892z M40,23.131h-2v0.5h2V23.131z M40,24.369h-2v0.5h2V24.369z M40,25.608h-2v0.5h2V25.608z M40,26.848h-2v0.5h2V26.848z M40,28.086h-2v0.5h2V28.086z M40,29.325h-2v0.5h2V29.325z M40,30.564h-2v0.5h2V30.564z M40,31.803h-2	v0.5h2V31.803z M40,33.042h-2v0.5h2V33.042z M40,34.281h-2v0.5h2V34.281z M40,35.52h-2v0.5h2V35.52z M40,36.759h-2v0.5h2V36.759z M40.104,39.75l-1.854-1.854l-0.354,0.354l1.854,1.854L40.104,39.75z M37.259,38h-0.5v2h0.5V38z M36.02,38h-0.5v2h0.5V38z M34.781,38h-0.5v2h0.5V38z M33.542,38h-0.5v2h0.5V38z M32.303,38h-0.5v2h0.5V38z M31.064,38h-0.5v2h0.5V38z M29.825,38h-0.5v2h0.5	V38z M28.586,38h-0.5v2h0.5V38z M27.348,38h-0.5v2h0.5V38z M26.108,38h-0.5v2h0.5V38z M24.869,38h-0.5v2h0.5V38z M23.631,38h-0.5v2	h0.5V38z M22.392,38h-0.5v2h0.5V38z M21.152,38h-0.5v2h0.5V38z M19.914,38h-0.5v2h0.5V38z M18.675,38h-0.5v2h0.5V38z M17.436,38	h-0.5v2h0.5V38z M16.197,38h-0.5v2h0.5V38z M14.958,38h-0.5v2h0.5V38z M13.719,38h-0.5v2h0.5V38z M12.48,38h-0.5v2h0.5V38z M11.241,38h-0.5v2h0.5V38z M10.104,38.25L9.75,37.896L7.896,39.75l0.354,0.354L10.104,38.25z M10,36.759H8v0.5h2V36.759z M10,35.52	H8v0.5h2V35.52z M10,34.281H8v0.5h2V34.281z M10,33.042H8v0.5h2V33.042z M10,31.803H8v0.5h2V31.803z M10,30.564H8v0.5h2V30.564z M10,29.325H8v0.5h2V29.325z M10,28.086H8v0.5h2V28.086z M10,26.848H8v0.5h2V26.848z M10,25.608H8v0.5h2V25.608z M10,24.369H8v0.5h2	V24.369z M10,23.131H8v0.5h2V23.131z M10,21.892H8v0.5h2V21.892z M10,20.652H8v0.5h2V20.652z M10,19.414H8v0.5h2V19.414z M10,18.175	H8v0.5h2V18.175z M10,16.936H8v0.5h2V16.936z M10,15.697H8v0.5h2V15.697z M10,14.458H8v0.5h2V14.458z M10,13.219H8v0.5h2V13.219z M10,11.98H8v0.5h2V11.98z M10,10.741H8v0.5h2V10.741z M10.104,9.75L8.25,7.896L7.896,8.25l1.854,1.854L10.104,9.75z" opacity=".8"/><rect width="26" height="26" x="11" y="11" fill="none" stroke="#52cccc" stroke-miterlimit="10" stroke-width=".25"/><path fill="#52cccc" d="M28,30.462c0.5,0.812,1.043,1.59,2.193,1.59c0.966,0,1.473-0.48,1.473-1.145	c0-0.795-0.524-1.078-1.587-1.54l-0.583-0.248c-1.682-0.714-2.801-1.608-2.801-3.496c0-1.741,1.332-3.065,3.415-3.065	c1.483,0,2.548,0.514,3.316,1.858l-1.816,1.161c-0.399-0.714-0.831-0.994-1.501-0.994c-0.683,0-1.116,0.431-1.116,0.994	c0,0.696,0.433,0.978,1.434,1.409l0.583,0.248c1.983,0.844,3.1,1.707,3.1,3.645c0,2.089-1.65,3.233-3.864,3.233	c-2.166,0-3.396-1.087-4.081-2.432L28,30.462z" opacity=".8"/><path fill="#52cccc" d="M19.632,30.521c0.365,0.654,0.921,1.158,1.72,1.158c0.764,0,1.204-0.302,1.204-1.475	v-7.648h2.407v8.017c0,2.432-1.41,3.538-3.47,3.538c-1.861,0-3.204-1.261-3.752-2.432L19.632,30.521z" opacity=".8"/></svg>