<svg xmlns="http://www.w3.org/2000/svg" xmlns:xlink="http://www.w3.org/1999/xlink" viewBox="0,0,256,256" width="96px" height="96px" fill-rule="nonzero"><g fill-opacity="0.45882" fill="#21a383" fill-rule="nonzero" stroke="none" stroke-width="1" stroke-linecap="butt" stroke-linejoin="miter" stroke-miterlimit="10" stroke-dasharray="" stroke-dashoffset="0" font-family="none" font-weight="none" font-size="none" text-anchor="none" style="mix-blend-mode: normal"><g transform="scale(10.66667,10.66667)"><path d="M21.903,4.878l-9.734,-3.159l-9.98,3.159l0.081,0.035l-0.092,-0.035v12.986l9.99,4.416v0c0,0 9.253,-4.112 9.767,-4.369l-0.032,-13.033l-0.004,0.002z" opacity="0.35"></path><path d="M22.903,4.881c0,-0.025 -0.001,-0.052 -0.003,-0.078c-0.03,-0.404 -0.302,-0.751 -0.688,-0.876l-9.734,-3.159c-0.198,-0.064 -0.412,-0.064 -0.61,-0.002l-9.916,3.137c-0.12,0.028 -0.235,0.078 -0.34,0.15c-0.272,0.187 -0.434,0.496 -0.434,0.825v12.986c0,0.396 0.233,0.755 0.596,0.915l9.991,4.417c0.129,0.057 0.267,0.085 0.404,0.085c0.138,0 0.277,-0.028 0.406,-0.086c0.949,-0.422 9.289,-4.13 9.809,-4.391c0.339,-0.17 0.552,-0.517 0.551,-0.896zM12.165,2.769l6.872,2.231l-6.868,2.53l-6.934,-2.568zM3.178,6.333l7.991,2.958v11.454l-7.991,-3.532zM13.169,20.742v-11.45l7.738,-2.85l0.027,10.83c-1.501,0.681 -5.582,2.5 -7.765,3.47z"></path><path d="M7.864,13.414c-0.522,-0.383 -1.992,-1.542 -1.992,-2.313c0,-0.257 0.096,-1.06 1.028,-1.028c1.381,0.048 1.478,2.121 1.478,2.121c0,0 0.578,0.257 1.092,0.385c0,-2.377 -1.285,-3.534 -2.57,-3.534c-0.631,0 -2.056,0 -2.056,2.056c0,1.285 1.292,2.305 2.41,3.181c1.189,0.932 1.703,2.988 0.161,2.731c-1.542,-0.257 -1.51,-2.249 -1.51,-2.249c0,0 -0.45,-0.193 -1.157,-0.45c-0.096,1.927 1.382,3.47 2.667,3.727c0.679,0.136 1.915,0.257 1.992,-1.703c0.063,-1.639 -0.877,-2.436 -1.543,-2.924z"></path><path d="M19.558,8.337l-0.835,6.555l-1.092,-5.816l-0.868,0.289l-1.06,6.876l-0.964,-6.169l-1.124,0.386l1.413,8.096l1.157,-0.546l0.996,-6.458l1.06,5.719l1.125,-0.45l1.188,-8.835z"></path></g></g></svg>