<svg version="1.1" id="Layer_1" xmlns="http://www.w3.org/2000/svg" xmlns:xlink="http://www.w3.org/1999/xlink" x="0px" y="0px"
	 width="100%" viewBox="0 0 766 86" enable-background="new 0 0 766 86" xml:space="preserve">
<path fill="#000000" opacity="1.000000" stroke="none" 
	d="
M693.000000,87.000008 
	C670.979126,87.000000 648.958191,87.000000 626.159546,86.657578 
	C628.130676,85.543068 630.845459,84.606262 633.634460,84.027191 
	C646.182861,81.421761 653.537842,78.411186 655.912964,65.582123 
	C655.987610,62.533031 655.987610,59.942497 655.987610,57.001041 
	C648.494202,57.001041 641.434021,56.967506 634.375122,57.050404 
	C633.629578,57.059162 632.892029,57.752224 632.078857,58.494484 
	C631.228821,62.617397 629.340515,65.083359 625.373169,66.294960 
	C611.328430,70.584213 597.270386,70.983490 583.004333,67.560616 
	C578.469360,66.472542 574.572327,65.061966 573.895569,59.288528 
	C573.918091,48.656052 573.873535,38.465141 573.939331,27.920164 
	C576.558899,25.438728 578.764648,22.110722 581.628601,21.386877 
	C595.831848,17.797058 610.199707,18.020044 624.518799,21.210646 
	C629.232117,22.260889 631.600220,25.233589 632.236816,30.317034 
	C640.183228,30.754671 648.039673,30.754671 656.477051,30.754671 
	C655.954102,27.152302 655.499939,24.023596 655.025391,20.517843 
	C653.255859,12.524498 647.907715,8.182431 640.933228,6.161444 
	C635.107605,4.473354 628.940186,3.976283 622.947937,2.827283 
	C622.530457,2.747230 622.311340,1.633207 622.000000,1.000003 
	C646.020874,1.000000 670.041809,1.000000 694.832886,1.355261 
	C694.596802,2.139437 693.627747,2.744736 692.577637,2.966747 
	C687.991760,3.936355 683.078003,4.067098 678.842346,5.838891 
	C668.787903,10.044658 665.668518,18.355078 665.847351,28.922241 
	C666.011963,38.646729 672.935059,47.120583 681.593872,48.790791 
	C692.785583,50.949593 704.237671,51.862267 715.614441,52.913605 
	C721.063660,53.417175 726.599792,52.909939 732.092529,53.034870 
	C737.580383,53.159691 740.865112,55.851727 740.999695,60.044060 
	C741.153259,64.826218 738.799805,66.985588 733.048279,68.034370 
	C723.277527,69.816032 713.395996,71.321785 703.687683,68.816376 
	C698.366211,67.443062 690.558044,69.399368 689.281677,61.061592 
	C681.435608,61.061592 673.768921,61.061592 666.341064,61.061592 
	C664.629700,70.676758 668.488342,77.282196 676.042603,81.247940 
	C680.211060,83.436264 685.350220,83.742691 690.005859,85.059982 
	C691.099304,85.369377 692.006897,86.335838 693.000000,87.000008 
z"/>
<path fill="#00B9F1" opacity="1.000000" stroke="none" 
	d="
M206.000000,1.000000 
	C219.354233,1.000000 232.708450,1.000000 246.542511,1.385688 
	C247.392334,2.996039 247.581207,4.314418 248.159195,5.431468 
	C258.712891,25.828104 269.308044,46.203300 279.917755,66.570885 
	C280.509460,67.706802 281.303589,68.737267 282.066498,70.153641 
	C285.525116,70.986755 283.913910,68.305534 283.919220,67.220367 
	C284.027405,45.147308 284.000183,23.073587 284.000000,1.000000 
	C291.354248,1.000000 298.708496,1.000000 306.533264,1.468654 
	C307.002533,30.291538 307.001282,58.645771 307.000000,87.000000 
	C293.312439,87.000000 279.624878,87.000000 265.790344,86.717514 
	C254.056595,63.969833 242.469788,41.504639 230.890259,18.721682 
	C230.511353,17.904379 230.125183,17.404837 229.000000,15.949323 
	C229.000000,40.331585 229.000000,63.665794 229.000000,87.000000 
	C221.645752,87.000000 214.291504,87.000000 206.468292,86.531342 
	C205.999542,57.708454 205.999771,29.354227 206.000000,1.000000 
z"/>
<path fill="#01B9F1" opacity="1.000000" stroke="none" 
	d="
M693.468628,87.000008 
	C692.006897,86.335838 691.099304,85.369377 690.005859,85.059982 
	C685.350220,83.742691 680.211060,83.436264 676.042603,81.247940 
	C668.488342,77.282196 664.629700,70.676758 666.341064,61.061592 
	C673.768921,61.061592 681.435608,61.061592 689.281677,61.061592 
	C690.558044,69.399368 698.366211,67.443062 703.687683,68.816376 
	C713.395996,71.321785 723.277527,69.816032 733.048279,68.034370 
	C738.799805,66.985588 741.153259,64.826218 740.999695,60.044060 
	C740.865112,55.851727 737.580383,53.159691 732.092529,53.034870 
	C726.599792,52.909939 721.063660,53.417175 715.614441,52.913605 
	C704.237671,51.862267 692.785583,50.949593 681.593872,48.790791 
	C672.935059,47.120583 666.011963,38.646729 665.847351,28.922241 
	C665.668518,18.355078 668.787903,10.044658 678.842346,5.838891 
	C683.078003,4.067098 687.991760,3.936355 692.577637,2.966747 
	C693.627747,2.744736 694.596802,2.139437 695.301575,1.355261 
	C708.687561,1.000000 722.375122,1.000000 736.232300,1.334782 
	C737.723877,2.113189 739.014709,2.740837 740.372864,2.971044 
	C750.402771,4.671149 760.706848,5.812121 765.560120,16.901043 
	C765.649353,17.105024 766.502991,16.974474 767.000000,17.000000 
	C767.000000,20.361288 767.000000,23.722574 766.531372,27.541773 
	C760.906860,27.999744 755.750793,28.021769 750.595093,27.992157 
	C747.148132,27.972363 743.199036,29.096008 742.152283,23.827501 
	C741.992493,23.023508 740.130859,22.360928 738.944763,21.987617 
	C724.823853,17.543360 710.516846,17.818863 696.344666,21.296078 
	C694.162537,21.831480 691.572021,25.699083 691.393494,28.185284 
	C691.150696,31.566580 693.657410,34.630455 697.718201,34.957550 
	C703.450562,35.419292 709.203125,35.623100 714.942261,36.009254 
	C724.329285,36.640850 733.724182,37.198055 743.093872,38.032646 
	C752.614258,38.880646 760.738220,42.236179 765.202698,51.529781 
	C765.376221,51.890957 766.382019,51.852333 767.000000,52.000004 
	C767.000000,58.021152 767.000000,64.042305 766.718689,70.224609 
	C765.046265,72.335815 763.747437,74.360252 762.247131,76.222313 
	C757.296631,82.366234 750.209900,83.868614 742.953003,85.077705 
	C741.891418,85.254593 740.980591,86.336739 740.000000,87.000015 
	C724.645752,87.000000 709.291565,87.000000 693.468628,87.000008 
z"/>
<path fill="#01B9F1" opacity="1.000000" stroke="none" 
	d="
M621.531372,1.000003 
	C622.311340,1.633207 622.530457,2.747230 622.947937,2.827283 
	C628.940186,3.976283 635.107605,4.473354 640.933228,6.161444 
	C647.907715,8.182431 653.255859,12.524498 654.998535,20.978367 
	C654.999817,22.636433 654.906677,23.472725 655.032227,24.274805 
	C655.735046,28.766466 653.990540,30.418890 649.370361,30.090088 
	C643.653137,29.683222 637.890076,29.920443 632.146851,29.879396 
	C631.600220,25.233589 629.232117,22.260889 624.518799,21.210646 
	C610.199707,18.020044 595.831848,17.797058 581.628601,21.386877 
	C578.764648,22.110722 576.558899,25.438728 573.687988,28.220402 
	C573.213562,34.293556 572.952881,39.714581 573.032227,45.130615 
	C573.103577,49.999954 573.548401,54.863819 573.828491,59.730095 
	C574.572327,65.061966 578.469360,66.472542 583.004333,67.560616 
	C597.270386,70.983490 611.328430,70.584213 625.373169,66.294960 
	C629.340515,65.083359 631.228821,62.617397 632.536743,58.458771 
	C637.190308,58.036999 641.314209,58.005669 645.438049,58.000736 
	C653.825623,57.990707 653.824463,57.996841 655.536865,65.653282 
	C655.569153,65.797668 655.734863,65.912216 655.838379,66.040688 
	C653.537842,78.411186 646.182861,81.421761 633.634460,84.027191 
	C630.845459,84.606262 628.130676,85.543068 625.690857,86.657578 
	C610.312439,87.000000 594.624878,87.000000 578.777954,86.657562 
	C575.877319,85.542900 573.181152,84.472656 570.387024,84.050972 
	C559.393005,82.391769 551.314758,77.288605 548.409973,65.703491 
	C548.772278,52.003059 548.892761,38.634048 548.949890,25.264780 
	C548.953125,24.509342 548.435242,23.751678 548.096802,22.619099 
	C551.018494,12.333706 557.319519,6.302156 567.839294,4.915556 
	C571.948914,4.373862 575.999817,3.361767 580.052734,2.453692 
	C580.456787,2.363160 580.688416,1.502988 581.000000,1.000003 
	C594.354248,1.000000 607.708435,1.000000 621.531372,1.000003 
z"/>
<path fill="#01B9F1" opacity="1.000000" stroke="none" 
	d="
M199.000000,87.000000 
	C190.979095,87.000000 182.958191,87.000000 174.455261,86.609093 
	C171.958191,81.169861 169.943146,76.121544 167.650085,70.768883 
	C152.778320,70.349648 138.184631,70.223297 123.590675,70.165787 
	C123.060760,70.163696 122.528183,70.838089 121.992500,71.564552 
	C119.992104,76.954590 117.996048,81.977295 116.000000,87.000000 
	C107.979103,87.000000 99.958199,87.000000 91.576843,86.643112 
	C91.491333,85.372246 91.691788,84.427727 92.052124,83.548744 
	C101.096169,61.487366 110.208122,39.453632 119.178131,17.362249 
	C121.353943,12.003661 123.071648,6.459065 125.000000,1.000000 
	C138.020889,1.000000 151.041794,1.000000 164.543091,1.403340 
	C165.352692,3.210339 165.509232,4.683073 166.038666,6.006640 
	C169.987167,15.877565 173.998596,25.723400 178.011124,35.568607 
	C184.999527,52.715614 192.002899,69.856529 199.000000,87.000000 
M160.744888,52.254818 
	C155.607010,39.967670 150.469131,27.680521 144.992081,14.582240 
	C139.879166,27.703114 134.970215,40.300526 129.880081,53.480610 
	C138.859268,53.653236 147.838043,53.872169 156.818054,53.948811 
	C158.172760,53.960373 159.533142,53.308388 160.744888,52.254818 
z"/>
<path fill="#01B9F1" opacity="1.000000" stroke="none" 
	d="
M421.000000,87.000000 
	C412.979095,87.000000 404.958191,87.000000 396.798035,86.709122 
	C394.448273,81.227158 392.237823,76.036079 389.691193,70.598785 
	C374.982208,70.244629 360.609406,70.121704 346.236359,70.073174 
	C345.520386,70.070755 344.802216,70.714569 344.040009,71.436554 
	C342.329956,76.877083 340.664978,81.938545 339.000000,87.000000 
	C330.645782,87.000000 322.291534,87.000000 313.572693,86.647835 
	C319.795563,70.398262 326.442963,54.525318 332.951385,38.595612 
	C338.056702,26.100145 342.990173,13.534473 348.000000,0.999998 
	C360.687561,1.000000 373.375122,1.000000 386.536316,1.396329 
	C393.359985,17.979490 399.648834,34.190704 406.080170,50.345184 
	C410.959351,62.600918 416.020050,74.784386 421.000000,87.000000 
M351.996979,53.011555 
	C351.996979,53.011555 351.976471,52.920063 352.525391,53.565430 
	C361.290497,53.709759 370.055359,53.902752 378.820984,53.947586 
	C380.185120,53.954563 381.552673,53.285297 382.706299,52.226177 
	C377.684937,39.954433 372.663574,27.682692 367.421234,14.870846 
	C366.464783,17.200338 365.744141,18.992329 364.995605,20.772596 
	C360.611847,31.198643 356.221588,41.621956 351.551697,52.279205 
	C351.730774,52.517132 351.909851,52.755062 351.996979,53.011555 
z"/>
<path fill="#000000" opacity="1.000000" stroke="none" 
	d="
M1.000000,53.000000 
	C1.000000,35.734650 1.000000,18.469299 1.000000,1.000000 
	C20.687092,1.000000 40.374886,1.000000 60.529434,1.468654 
	C60.996445,20.705971 61.015400,39.474663 60.985561,58.243275 
	C60.976616,63.869541 58.382668,67.983940 53.466446,68.674454 
	C47.281307,69.543205 40.909203,70.296410 34.736748,69.751587 
	C25.747503,68.958145 25.015898,67.508598 24.998049,58.220203 
	C24.995497,56.891651 25.330143,55.414238 24.854244,54.280434 
	C24.454065,53.327019 23.088879,52.128338 22.171705,52.145569 
	C15.111611,52.278214 8.056593,52.681015 1.000000,53.000000 
z"/>
<path fill="#00B9F1" opacity="1.000000" stroke="none" 
	d="
M466.000000,87.000000 
	C457.979095,87.000000 449.958191,87.000000 441.466736,86.531349 
	C440.944061,63.709541 440.891968,41.356388 440.644714,18.632423 
	C428.021606,18.163229 415.593658,18.064844 403.093750,17.505909 
	C403.014557,11.696906 403.007263,6.348453 403.000000,1.000000 
	C436.687561,1.000000 470.375122,1.000000 504.531311,1.467417 
	C504.666840,7.342552 504.333679,12.750269 503.535828,18.097021 
	C491.067688,18.104227 479.064178,18.172398 466.732147,18.480124 
	C466.268555,20.527227 466.018372,22.334627 466.016052,24.142345 
	C465.989044,45.094872 465.999481,66.047440 466.000000,87.000000 
z"/>
<path fill="#00B9F1" opacity="1.000000" stroke="none" 
	d="
M1.000000,53.468533 
	C8.056593,52.681015 15.111611,52.278214 22.171705,52.145569 
	C23.088879,52.128338 24.454065,53.327019 24.854244,54.280434 
	C25.330143,55.414238 24.995497,56.891651 24.998049,58.220203 
	C25.015898,67.508598 25.747503,68.958145 34.736748,69.751587 
	C40.909203,70.296410 47.281307,69.543205 53.466446,68.674454 
	C58.382668,67.983940 60.976616,63.869541 60.985561,58.243275 
	C61.015400,39.474663 60.996445,20.705971 60.998093,1.468654 
	C69.020897,1.000000 77.041801,1.000000 85.532669,1.468656 
	C86.032539,23.644993 86.062431,45.352676 86.054092,67.453522 
	C84.866028,76.340950 77.753937,83.630074 69.401192,85.083710 
	C68.516434,85.237686 67.796432,86.338463 67.000000,87.000000 
	C51.645771,87.000000 36.291542,87.000000 20.778721,86.666977 
	C19.971466,85.901382 19.361097,85.171364 18.668230,85.082161 
	C11.579584,84.169540 5.739239,81.504227 2.779994,74.421501 
	C2.641833,74.090828 1.613669,74.132004 1.000000,74.000000 
	C1.000000,67.312355 1.000000,60.624710 1.000000,53.468533 
z"/>
<path fill="#000000" opacity="1.000000" stroke="none" 
	d="
M504.000519,18.157986 
	C504.333679,12.750269 504.666840,7.342552 505.000000,1.467417 
	C507.041656,1.000000 509.083344,1.000000 511.562500,1.468657 
	C512.000000,30.291544 512.000000,58.645771 512.000000,87.000000 
	C497.312439,87.000000 482.624878,87.000000 467.468842,86.531342 
	C467.023743,63.725983 467.047089,41.389286 467.532379,19.028896 
	C478.471161,19.003353 488.948273,19.035385 499.424591,18.962198 
	C500.951691,18.951530 502.475311,18.438541 504.000519,18.157986 
z"/>
<path fill="#000000" opacity="1.000000" stroke="none" 
	d="
M402.533142,1.000000 
	C403.007263,6.348453 403.014557,11.696906 403.193970,17.934132 
	C415.857391,18.883013 428.348663,18.943121 440.839905,19.003231 
	C440.891968,41.356388 440.944061,63.709541 440.998077,86.531349 
	C434.645599,87.000000 428.291199,87.000000 421.468384,87.000000 
	C416.020050,74.784386 410.959351,62.600918 406.080170,50.345184 
	C399.648834,34.190704 393.359985,17.979490 387.004944,1.396329 
	C392.022095,1.000000 397.044189,1.000000 402.533142,1.000000 
z"/>
<path fill="#00B9F1" opacity="1.000000" stroke="none" 
	d="
M538.000000,87.000000 
	C529.979065,87.000000 521.958191,87.000000 513.468628,86.531342 
	C513.000000,57.708454 513.000000,29.354227 513.000000,1.000000 
	C521.020935,1.000000 529.041809,1.000000 537.531372,1.468657 
	C538.000000,30.291544 538.000000,58.645771 538.000000,87.000000 
z"/>
<path fill="#000000" opacity="1.000000" stroke="none" 
	d="
M347.531342,0.999998 
	C342.990173,13.534473 338.056702,26.100145 332.951385,38.595612 
	C326.442963,54.525318 319.795563,70.398262 313.104065,86.647835 
	C311.285645,87.000000 309.571289,87.000000 307.428467,87.000000 
	C307.001282,58.645771 307.002533,30.291538 307.001892,1.468654 
	C320.354218,1.000000 333.708466,1.000000 347.531342,0.999998 
z"/>
<path fill="#000000" opacity="1.000000" stroke="none" 
	d="
M199.428467,87.000000 
	C192.002899,69.856529 184.999527,52.715614 178.011124,35.568607 
	C173.998596,25.723400 169.987167,15.877565 166.038666,6.006640 
	C165.509232,4.683073 165.352692,3.210339 165.011749,1.403340 
	C178.020889,1.000000 191.041794,1.000000 204.531342,1.468657 
	C205.000000,30.291544 205.000000,58.645771 205.000000,87.000000 
	C203.285645,87.000000 201.571289,87.000000 199.428467,87.000000 
z"/>
<path fill="#000000" opacity="1.000000" stroke="none" 
	d="
M67.468636,87.000000 
	C67.796432,86.338463 68.516434,85.237686 69.401192,85.083710 
	C77.753937,83.630074 84.866028,76.340950 86.439690,67.245163 
	C86.909004,44.762421 86.954506,22.881210 87.000000,1.000000 
	C99.354225,1.000000 111.708458,1.000000 124.531342,1.000000 
	C123.071648,6.459065 121.353943,12.003661 119.178131,17.362249 
	C110.208122,39.453632 101.096169,61.487366 92.052124,83.548744 
	C91.691788,84.427727 91.491333,85.372246 91.108185,86.643112 
	C83.312424,87.000000 75.624847,87.000000 67.468636,87.000000 
z"/>
<path fill="#000000" opacity="1.000000" stroke="none" 
	d="
M282.003510,69.816803 
	C281.303589,68.737267 280.509460,67.706802 279.917755,66.570885 
	C269.308044,46.203300 258.712891,25.828104 248.159195,5.431468 
	C247.581207,4.314418 247.392334,2.996039 247.011169,1.385688 
	C258.687561,1.000000 270.375122,1.000000 282.531372,1.468657 
	C282.999969,22.935389 283.021881,43.933529 282.956696,64.931396 
	C282.951630,66.560844 282.335571,68.188377 282.003510,69.816803 
z"/>
<path fill="#000000" opacity="1.000000" stroke="none" 
	d="
M538.468628,87.000000 
	C538.000000,58.645771 538.000000,30.291544 538.000000,1.468657 
	C552.020874,1.000000 566.041809,1.000000 580.531372,1.000003 
	C580.688416,1.502988 580.456787,2.363160 580.052734,2.453692 
	C575.999817,3.361767 571.948914,4.373862 567.839294,4.915556 
	C557.319519,6.302156 551.018494,12.333706 548.021729,23.084255 
	C548.058044,37.961857 548.106323,51.998356 548.154541,66.034851 
	C551.314758,77.288605 559.393005,82.391769 570.387024,84.050972 
	C573.181152,84.472656 575.877319,85.542900 578.309265,86.657562 
	C564.979126,87.000000 551.958191,87.000000 538.468628,87.000000 
z"/>
<path fill="#000000" opacity="1.000000" stroke="none" 
	d="
M230.882965,19.039440 
	C242.469788,41.504639 254.056595,63.969833 265.321716,86.717514 
	C253.645767,87.000000 242.291550,87.000000 230.468872,86.531342 
	C230.000046,65.232765 229.981354,44.402798 230.037384,23.573032 
	C230.041443,22.061087 230.588425,20.550604 230.882965,19.039440 
z"/>
<path fill="#000000" opacity="1.000000" stroke="none" 
	d="
M767.000000,51.531368 
	C766.382019,51.852333 765.376221,51.890957 765.202698,51.529781 
	C760.738220,42.236179 752.614258,38.880646 743.093872,38.032646 
	C733.724182,37.198055 724.329285,36.640850 714.942261,36.009254 
	C709.203125,35.623100 703.450562,35.419292 697.718201,34.957550 
	C693.657410,34.630455 691.150696,31.566580 691.393494,28.185284 
	C691.572021,25.699083 694.162537,21.831480 696.344666,21.296078 
	C710.516846,17.818863 724.823853,17.543360 738.944763,21.987617 
	C740.130859,22.360928 741.992493,23.023508 742.152283,23.827501 
	C743.199036,29.096008 747.148132,27.972363 750.595093,27.992157 
	C755.750793,28.021769 760.906860,27.999744 766.531372,27.999842 
	C767.000000,35.687576 767.000000,43.375153 767.000000,51.531368 
z"/>
<path fill="#000000" opacity="1.000000" stroke="none" 
	d="
M167.928116,71.073212 
	C169.943146,76.121544 171.958191,81.169861 173.986603,86.609093 
	C154.979111,87.000000 135.958206,87.000000 116.468658,87.000000 
	C117.996048,81.977295 119.992104,76.954590 122.456665,71.478195 
	C137.926147,71.040741 152.927139,71.056976 167.928116,71.073212 
z"/>
<path fill="#000000" opacity="1.000000" stroke="none" 
	d="
M390.027344,70.845001 
	C392.237823,76.036079 394.448273,81.227158 396.329376,86.709122 
	C377.312439,87.000000 358.624878,87.000000 339.468658,87.000000 
	C340.664978,81.938545 342.329956,76.877083 344.499634,71.410278 
	C360.011993,70.951630 375.019653,70.898315 390.027344,70.845001 
z"/>
<path fill="#000000" opacity="1.000000" stroke="none" 
	d="
M767.000000,16.528801 
	C766.502991,16.974474 765.649353,17.105024 765.560120,16.901043 
	C760.706848,5.812121 750.402771,4.671149 740.372864,2.971044 
	C739.014709,2.740837 737.723877,2.113189 736.700928,1.334782 
	C746.902771,1.000000 756.805542,1.000000 767.000000,1.000000 
	C767.000000,6.015474 767.000000,11.036539 767.000000,16.528801 
z"/>
<path fill="#000000" opacity="1.000000" stroke="none" 
	d="
M740.468628,87.000015 
	C740.980591,86.336739 741.891418,85.254593 742.953003,85.077705 
	C750.209900,83.868614 757.296631,82.366234 762.247131,76.222313 
	C763.747437,74.360252 765.046265,72.335815 766.718689,70.692879 
	C767.000000,76.278458 767.000000,81.556908 767.000000,87.000000 
	C758.312988,87.000000 749.625122,87.000000 740.468628,87.000015 
z"/>
<path fill="#000000" opacity="1.000000" stroke="none" 
	d="
M1.000000,74.476662 
	C1.613669,74.132004 2.641833,74.090828 2.779994,74.421501 
	C5.739239,81.504227 11.579584,84.169540 18.668230,85.082161 
	C19.361097,85.171364 19.971466,85.901382 20.310064,86.666977 
	C13.757811,87.000000 7.515622,87.000000 1.000000,87.000000 
	C1.000000,82.988503 1.000000,78.970909 1.000000,74.476662 
z"/>
<path fill="#C8F1FC" opacity="1.000000" stroke="none" 
	d="
M512.750000,1.000000 
	C513.000000,29.354227 513.000000,57.708454 513.000000,86.531342 
	C513.000000,87.000000 512.500000,87.000000 512.250000,87.000000 
	C512.000000,58.645771 512.000000,30.291544 512.000000,1.468657 
	C512.000000,1.000000 512.500000,1.000000 512.750000,1.000000 
z"/>
<path fill="#A3E7FA" opacity="1.000000" stroke="none" 
	d="
M205.250000,87.000000 
	C205.000000,58.645771 205.000000,30.291544 205.000000,1.468657 
	C205.000000,1.000000 205.500000,1.000000 205.750000,1.000000 
	C205.999771,29.354227 205.999542,57.708454 205.999664,86.531342 
	C206.000000,87.000000 205.500000,87.000000 205.250000,87.000000 
z"/>
<path fill="#36CCF4" opacity="1.000000" stroke="none" 
	d="
M282.066498,70.153641 
	C282.335571,68.188377 282.951630,66.560844 282.956696,64.931396 
	C283.021881,43.933529 282.999969,22.935389 283.000061,1.468657 
	C283.000000,1.000000 283.500000,1.000000 283.750000,1.000000 
	C284.000183,23.073587 284.027405,45.147308 283.919220,67.220367 
	C283.913910,68.305534 285.525116,70.986755 282.066498,70.153641 
z"/>
<path fill="#B5ECFB" opacity="1.000000" stroke="none" 
	d="
M230.890244,18.721680 
	C230.588425,20.550604 230.041443,22.061087 230.037384,23.573032 
	C229.981354,44.402798 230.000046,65.232765 230.000214,86.531342 
	C230.000000,87.000000 229.500000,87.000000 229.250000,87.000000 
	C229.000000,63.665794 229.000000,40.331585 229.000000,15.949323 
	C230.125183,17.404837 230.511353,17.904379 230.890244,18.721680 
z"/>
<path fill="#90E2F8" opacity="1.000000" stroke="none" 
	d="
M467.070435,19.052586 
	C467.047089,41.389286 467.023743,63.725983 467.000183,86.531342 
	C467.000000,87.000000 466.500000,87.000000 466.250000,87.000000 
	C465.999481,66.047440 465.989044,45.094872 466.016052,24.142345 
	C466.018372,22.334627 466.268555,20.527227 466.745178,18.682951 
	C467.086731,18.646221 467.070435,19.052586 467.070435,19.052586 
z"/>
<path fill="#A6E7FA" opacity="1.000000" stroke="none" 
	d="
M86.750000,1.000000 
	C86.954506,22.881210 86.909004,44.762421 86.477921,66.851990 
	C86.062431,45.352676 86.032539,23.644993 86.001320,1.468656 
	C86.000000,1.000000 86.500000,1.000000 86.750000,1.000000 
z"/>
<path fill="#38CDF4" opacity="1.000000" stroke="none" 
	d="
M632.236816,30.317034 
	C637.890076,29.920443 643.653137,29.683222 649.370361,30.090088 
	C653.990540,30.418890 655.735046,28.766466 655.032227,24.274805 
	C654.906677,23.472725 654.999817,22.636433 655.018860,21.355415 
	C655.499939,24.023596 655.954102,27.152302 656.477051,30.754671 
	C648.039673,30.754671 640.183228,30.754671 632.236816,30.317034 
z"/>
<path fill="#37CDF5" opacity="1.000000" stroke="none" 
	d="
M655.912964,65.582130 
	C655.734863,65.912216 655.569153,65.797668 655.536865,65.653282 
	C653.824463,57.996841 653.825623,57.990707 645.438049,58.000736 
	C641.314209,58.005669 637.190308,58.036999 632.608643,58.092094 
	C632.892029,57.752224 633.629578,57.059162 634.375122,57.050404 
	C641.434021,56.967506 648.494202,57.001041 655.987610,57.001041 
	C655.987610,59.942497 655.987610,62.533031 655.912964,65.582130 
z"/>
<path fill="#8CE1F8" opacity="1.000000" stroke="none" 
	d="
M573.895569,59.288528 
	C573.548401,54.863819 573.103577,49.999954 573.032227,45.130615 
	C572.952881,39.714581 573.213562,34.293556 573.577637,28.574467 
	C573.873535,38.465141 573.918091,48.656052 573.895569,59.288528 
z"/>
<path fill="#17C5F3" opacity="1.000000" stroke="none" 
	d="
M548.409973,65.703491 
	C548.106323,51.998356 548.058044,37.961857 548.084839,23.460205 
	C548.435242,23.751678 548.953125,24.509342 548.949890,25.264780 
	C548.892761,38.634048 548.772278,52.003059 548.409973,65.703491 
z"/>
<path fill="#000000" opacity="1.000000" stroke="none" 
	d="
M130.061279,52.897942 
	C134.970215,40.300526 139.879166,27.703114 144.992081,14.582240 
	C150.469131,27.680521 155.607010,39.967670 160.359833,52.624733 
	C150.003601,52.962414 140.032440,52.930176 130.061279,52.897942 
z"/>
<path fill="#36CCF4" opacity="1.000000" stroke="none" 
	d="
M167.650085,70.768875 
	C152.927139,71.056976 137.926147,71.040741 122.461014,71.110863 
	C122.528183,70.838089 123.060760,70.163696 123.590675,70.165787 
	C138.184631,70.223297 152.778320,70.349648 167.650085,70.768875 
z"/>
<path fill="#5BD5F7" opacity="1.000000" stroke="none" 
	d="
M129.970673,53.189278 
	C140.032440,52.930176 150.003601,52.962414 160.432831,52.978989 
	C159.533142,53.308388 158.172760,53.960373 156.818054,53.948811 
	C147.838043,53.872169 138.859268,53.653236 129.970673,53.189278 
z"/>
<path fill="#000000" opacity="1.000000" stroke="none" 
	d="
M351.833527,52.046188 
	C356.221588,41.621956 360.611847,31.198643 364.995605,20.772596 
	C365.744141,18.992329 366.464783,17.200338 367.421234,14.870846 
	C372.663574,27.682692 377.684937,39.954433 382.352356,52.609482 
	C371.991089,52.968548 361.983765,52.944305 351.976471,52.920059 
	C351.976471,52.920063 351.996979,53.011555 351.994354,52.761276 
	C351.991730,52.510998 351.833527,52.046192 351.833527,52.046188 
z"/>
<path fill="#36CCF4" opacity="1.000000" stroke="none" 
	d="
M389.691193,70.598785 
	C375.019653,70.898315 360.011993,70.951630 344.544678,71.031204 
	C344.802216,70.714569 345.520386,70.070755 346.236359,70.073174 
	C360.609406,70.121704 374.982208,70.244629 389.691193,70.598785 
z"/>
<path fill="#59D5F7" opacity="1.000000" stroke="none" 
	d="
M352.250916,53.242744 
	C361.983765,52.944305 371.991089,52.968548 382.458527,52.960766 
	C381.552673,53.285297 380.185120,53.954563 378.820984,53.947586 
	C370.055359,53.902752 361.290497,53.709759 352.250916,53.242744 
z"/>
<path fill="#59D5F7" opacity="1.000000" stroke="none" 
	d="
M351.692627,52.162697 
	C351.833527,52.046192 351.991730,52.510998 352.040314,52.751995 
	C351.909851,52.755062 351.730774,52.517132 351.692627,52.162697 
z"/>
<path fill="#B6ECFB" opacity="1.000000" stroke="none" 
	d="
M440.644714,18.632423 
	C428.348663,18.943121 415.857391,18.883013 403.265930,18.394680 
	C415.593658,18.064844 428.021606,18.163229 440.644714,18.632423 
z"/>
<path fill="#B6ECFB" opacity="1.000000" stroke="none" 
	d="
M467.532379,19.028896 
	C467.070435,19.052586 467.086731,18.646221 467.073730,18.443394 
	C479.064178,18.172398 491.067688,18.104227 503.535828,18.097021 
	C502.475311,18.438541 500.951691,18.951530 499.424591,18.962198 
	C488.948273,19.035385 478.471161,19.003353 467.532379,19.028896 
z"/>
</svg>