<svg version="1.1" id="Layer_1" xmlns="http://www.w3.org/2000/svg" xmlns:xlink="http://www.w3.org/1999/xlink" x="0px" y="0px"
	 width="100%" viewBox="0 0 180 180" enable-background="new 0 0 180 180" xml:space="preserve">
<path fill="#010101" opacity="1.000000" stroke="none" 
	d="
M94.000000,181.000000 
	C62.666668,181.000000 31.833338,181.000000 1.000004,181.000000 
	C1.000003,121.000008 1.000003,61.000011 1.000001,1.000012 
	C60.999989,1.000008 120.999977,1.000008 180.999969,1.000004 
	C180.999985,60.999989 180.999985,120.999977 181.000000,180.999985 
	C152.166672,181.000000 123.333336,181.000000 94.000000,181.000000 
M71.946198,94.208763 
	C71.762894,92.417229 71.579590,90.625702 71.641388,88.239388 
	C71.738419,87.821892 71.835449,87.404404 72.569580,87.171646 
	C74.021309,88.175301 75.473045,89.178947 77.224060,90.772232 
	C80.495979,93.320480 83.767899,95.868729 87.039825,98.416977 
	C87.325859,98.050056 87.611900,97.683136 87.897942,97.316216 
	C85.894798,94.966011 83.828018,92.665306 81.933975,90.230232 
	C81.469902,89.633583 81.570755,88.597527 82.091026,87.660011 
	C86.684486,92.097595 91.277954,96.535172 96.358238,101.443054 
	C96.358238,90.462082 96.358238,80.320007 96.358238,70.199265 
	C94.185600,70.199265 92.405235,70.199265 90.075287,70.199265 
	C90.075287,76.275185 90.075287,82.153114 90.075287,88.925339 
	C84.796402,84.773155 80.289566,81.228241 75.782738,77.683327 
	C75.472336,78.047043 75.161934,78.410759 74.851540,78.774475 
	C75.711792,79.820297 76.572052,80.866127 76.565399,81.983566 
	C75.696999,81.995041 74.828590,82.006516 73.428459,81.657082 
	C71.954208,80.102898 70.479950,78.548706 69.008438,76.259506 
	C68.073174,75.285378 67.198273,74.230095 66.129585,73.435379 
	C65.989120,73.330925 64.260216,74.575951 64.276291,75.168587 
	C64.446854,81.459221 64.821762,87.744324 64.989250,94.926598 
	C64.979607,96.733864 64.937492,98.541649 64.966553,100.348297 
	C65.046791,105.336143 65.679306,105.758354 71.058784,104.316544 
	C71.058784,101.915817 71.058784,99.460968 71.539146,96.706886 
	C71.586426,96.164696 71.633698,95.622513 71.946198,94.208763 
M22.001266,95.737488 
	C22.553164,96.325645 23.105059,96.913795 23.865055,98.133728 
	C25.568996,100.486877 27.272938,102.840019 29.156450,105.908485 
	C31.144556,106.443550 33.132660,106.978615 35.172249,107.527534 
	C35.549500,109.133133 33.699390,113.181015 38.001877,110.985191 
	C37.535622,108.667152 37.158031,106.789909 36.681934,104.400276 
	C36.452908,103.938515 36.223885,103.476761 35.904835,102.556206 
	C35.756496,102.256523 35.520004,102.066635 34.912373,101.695847 
	C34.912373,101.695847 34.811146,101.303001 34.942684,100.221024 
	C35.055714,99.137207 35.168743,98.053383 35.888660,97.461983 
	C38.654568,102.688293 41.699997,107.393776 49.143890,104.340851 
	C46.624512,100.819313 44.153633,97.365570 41.585152,93.775406 
	C47.714924,89.777374 49.483612,84.341309 47.629875,77.956184 
	C46.167389,72.918701 42.031315,70.461151 37.071999,70.189003 
	C30.482265,69.827385 23.857740,70.099800 17.296825,70.099800 
	C17.296825,72.410606 17.296825,74.303642 17.296825,76.729889 
	C23.720562,76.729889 29.858538,76.636749 35.992020,76.762665 
	C40.074841,76.846489 41.979057,79.282890 41.339371,83.304390 
	C40.656872,87.595032 37.712753,88.443199 34.046509,87.237206 
	C34.678410,85.753822 35.773540,84.283333 35.815281,82.783524 
	C35.859283,81.202271 36.675930,78.160866 32.055840,79.089127 
	C27.161963,79.089127 22.268085,79.089127 17.515543,79.089127 
	C15.748941,85.656548 17.218454,90.852409 22.001266,95.737488 
M143.344864,90.138123 
	C139.472092,94.841110 135.599304,99.544098 131.378204,104.670090 
	C140.106171,105.602592 147.047363,97.964264 145.673431,90.520851 
	C148.237625,93.966125 151.196198,97.191849 153.267014,100.911774 
	C155.906128,105.652580 159.529785,105.648697 164.296646,104.619614 
	C157.087738,94.311501 149.860931,84.608719 143.379623,74.431198 
	C140.355728,69.682838 136.966568,69.335648 132.093781,70.543190 
	C135.850937,75.894447 139.424240,80.839874 142.807022,85.912369 
	C143.566544,87.051285 143.659836,88.634491 143.344864,90.138123 
M53.798153,96.475876 
	C53.798153,99.247025 53.798153,102.018173 53.798153,104.783615 
	C56.179195,104.783615 58.054337,104.783615 59.884285,104.783615 
	C59.884285,93.087715 59.884285,81.708420 59.884285,70.319069 
	C57.749649,70.319069 55.865887,70.319069 54.034931,70.319069 
	C53.927170,70.941795 53.824780,71.259308 53.824173,71.577026 
	C53.808987,79.544334 53.804520,87.511650 53.798153,96.475876 
M101.932404,74.369919 
	C102.024559,75.633698 102.116714,76.897469 102.204697,78.103989 
	C118.457024,79.513130 123.485146,77.758904 125.545792,70.019310 
	C118.690521,70.019310 111.855736,70.169495 105.032990,69.948212 
	C102.150261,69.854713 101.600731,71.067444 101.932404,74.369919 
M121.959694,83.146103 
	C115.349075,83.146103 108.738457,83.146103 102.136337,83.146103 
	C102.136337,86.199982 102.136337,88.646675 102.136337,91.489586 
	C106.320625,91.489586 110.296646,91.408676 114.267967,91.510628 
	C118.941772,91.630615 121.487198,88.643089 123.679565,85.195694 
	C123.905876,84.839828 123.136086,83.850510 121.959694,83.146103 
M108.508972,96.988289 
	C106.403954,96.988289 104.298927,96.988289 102.140556,96.988289 
	C102.140556,99.915047 102.140556,102.332077 102.140556,104.719292 
	C112.197128,106.049728 115.935059,104.274742 118.454285,96.988289 
	C115.430443,96.988289 112.450012,96.988289 108.508972,96.988289 
M155.191483,81.991447 
	C157.879105,78.180557 160.566711,74.369667 163.314011,70.474174 
	C154.516495,67.705727 153.506180,75.008171 149.296371,79.734947 
	C151.392441,80.840355 153.099854,81.740807 155.191483,81.991447 
z"/>
<path fill="#F3F3F3" opacity="1.000000" stroke="none" 
	d="
M33.973415,87.981514 
	C37.712753,88.443199 40.656872,87.595032 41.339371,83.304390 
	C41.979057,79.282890 40.074841,76.846489 35.992020,76.762665 
	C29.858538,76.636749 23.720562,76.729889 17.296825,76.729889 
	C17.296825,74.303642 17.296825,72.410606 17.296825,70.099800 
	C23.857740,70.099800 30.482265,69.827385 37.071999,70.189003 
	C42.031315,70.461151 46.167389,72.918701 47.629875,77.956184 
	C49.483612,84.341309 47.714924,89.777374 41.585152,93.775406 
	C44.153633,97.365570 46.624512,100.819313 49.143890,104.340851 
	C41.699997,107.393776 38.654568,102.688293 35.509262,96.923515 
	C33.429585,93.639732 31.729307,90.894424 30.282520,88.136337 
	C30.696671,88.070465 30.857330,88.017365 31.380117,88.071167 
	C32.485970,88.112556 33.229691,88.047035 33.973415,87.981514 
z"/>
<path fill="#E3F7E3" opacity="1.000000" stroke="none" 
	d="
M144.059845,90.013161 
	C143.659836,88.634491 143.566544,87.051285 142.807022,85.912369 
	C139.424240,80.839874 135.850937,75.894447 132.093781,70.543190 
	C136.966568,69.335648 140.355728,69.682838 143.379623,74.431198 
	C149.860931,84.608719 157.087738,94.311501 164.296646,104.619614 
	C159.529785,105.648697 155.906128,105.652580 153.267014,100.911774 
	C151.196198,97.191849 148.237625,93.966125 145.358612,90.759338 
	C145.043793,90.997833 145.009918,91.069603 145.215363,90.650352 
	C144.919769,90.147125 144.418747,90.063148 143.959839,89.960182 
	C144.001938,89.941193 144.059845,90.013161 144.059845,90.013161 
z"/>
<path fill="#E7E7E7" opacity="1.000000" stroke="none" 
	d="
M77.432304,81.911957 
	C76.572052,80.866127 75.711792,79.820297 74.851540,78.774475 
	C75.161934,78.410759 75.472336,78.047043 75.782738,77.683327 
	C80.289566,81.228241 84.796402,84.773155 90.075287,88.925339 
	C90.075287,82.153114 90.075287,76.275185 90.075287,70.199265 
	C92.405235,70.199265 94.185600,70.199265 96.358238,70.199265 
	C96.358238,80.320007 96.358238,90.462082 96.358238,101.443054 
	C91.277954,96.535172 86.684486,92.097595 81.676117,87.682495 
	C81.261208,87.704987 81.139763,87.813187 81.397141,87.516907 
	C80.796440,86.039886 79.938362,84.859138 79.018600,83.431564 
	C78.448715,82.760475 77.940514,82.336220 77.432304,81.911957 
z"/>
<path fill="#FFFFFF" opacity="1.000000" stroke="none" 
	d="
M53.798153,95.977425 
	C53.804520,87.511650 53.808987,79.544334 53.824173,71.577026 
	C53.824780,71.259308 53.927170,70.941795 54.034931,70.319069 
	C55.865887,70.319069 57.749649,70.319069 59.884285,70.319069 
	C59.884285,81.708420 59.884285,93.087715 59.884285,104.783615 
	C58.054337,104.783615 56.179195,104.783615 53.798153,104.783615 
	C53.798153,102.018173 53.798153,99.247025 53.798153,95.977425 
z"/>
<path fill="#FBFBFB" opacity="1.000000" stroke="none" 
	d="
M101.932426,73.906670 
	C101.600731,71.067444 102.150261,69.854713 105.032990,69.948212 
	C111.855736,70.169495 118.690521,70.019310 125.545792,70.019310 
	C123.485146,77.758904 118.457024,79.513130 102.204697,78.103989 
	C102.116714,76.897469 102.024559,75.633698 101.932426,73.906670 
z"/>
<path fill="#F4F4F4" opacity="1.000000" stroke="none" 
	d="
M122.394089,83.150620 
	C123.136086,83.850510 123.905876,84.839828 123.679565,85.195694 
	C121.487198,88.643089 118.941772,91.630615 114.267967,91.510628 
	C110.296646,91.408676 106.320625,91.489586 102.136337,91.489586 
	C102.136337,88.646675 102.136337,86.199982 102.136337,83.146103 
	C108.738457,83.146103 115.349075,83.146103 122.394089,83.150620 
z"/>
<path fill="#FDFDFD" opacity="1.000000" stroke="none" 
	d="
M108.989273,96.988289 
	C112.450012,96.988289 115.430443,96.988289 118.454285,96.988289 
	C115.935059,104.274742 112.197128,106.049728 102.140556,104.719292 
	C102.140556,102.332077 102.140556,99.915047 102.140556,96.988289 
	C104.298927,96.988289 106.403954,96.988289 108.989273,96.988289 
z"/>
<path fill="#051A27" opacity="1.000000" stroke="none" 
	d="
M30.029030,88.149109 
	C31.729307,90.894424 33.429585,93.639732 35.205818,96.677307 
	C35.168743,98.053383 35.055714,99.137207 34.584541,100.588837 
	C32.488335,98.635521 30.750269,96.314400 28.931038,93.685669 
	C28.016390,92.481560 27.182909,91.585052 26.251743,90.659042 
	C26.154060,90.629539 26.357256,90.649292 26.300779,90.341331 
	C25.545437,89.284187 24.846571,88.535011 23.984707,87.489082 
	C24.047390,86.533867 24.157160,85.381126 24.517443,85.296638 
	C26.975031,84.720322 29.485292,84.368629 32.336040,83.960258 
	C32.790775,82.355850 32.888039,80.735649 32.985302,79.115456 
	C36.675930,78.160866 35.859283,81.202271 35.815281,82.783524 
	C35.773540,84.283333 34.678410,85.753822 34.009964,87.609360 
	C33.229691,88.047035 32.485970,88.112556 31.270210,87.907631 
	C30.541794,87.807831 30.285410,87.978470 30.029030,88.149109 
z"/>
<path fill="#F3F4F3" opacity="1.000000" stroke="none" 
	d="
M145.012558,90.973358 
	C147.047363,97.964264 140.106171,105.602592 131.378204,104.670090 
	C135.599304,99.544098 139.472092,94.841110 143.702362,90.075638 
	C144.059845,90.013161 144.001938,89.941193 143.966278,90.321548 
	C144.290390,90.824471 144.650162,90.947037 145.009918,91.069603 
	C145.009918,91.069603 145.043793,90.997833 145.012558,90.973358 
z"/>
<path fill="#F2F2F2" opacity="1.000000" stroke="none" 
	d="
M154.999390,82.316345 
	C153.099854,81.740807 151.392441,80.840355 149.296371,79.734947 
	C153.506180,75.008171 154.516495,67.705727 163.314011,70.474174 
	C160.566711,74.369667 157.879105,78.180557 154.999390,82.316345 
z"/>
<path fill="#32B0DE" opacity="1.000000" stroke="none" 
	d="
M29.012203,93.993271 
	C30.750269,96.314400 32.488335,98.635521 34.518772,101.129822 
	C34.811146,101.303001 34.912373,101.695847 35.066231,102.085739 
	C35.378319,102.799080 35.636578,102.978867 35.994862,103.014999 
	C36.223885,103.476761 36.452908,103.938515 36.303322,104.709244 
	C33.608768,105.076538 31.292824,105.134850 28.976881,105.193169 
	C27.272938,102.840019 25.568996,100.486877 23.864109,97.439293 
	C23.895321,96.485771 23.927479,96.226692 24.296886,95.951569 
	C25.743858,95.278381 26.853579,94.621223 28.225515,93.971756 
	C28.662554,93.984047 28.837378,93.988655 29.012203,93.993271 
z"/>
<path fill="#227DA8" opacity="1.000000" stroke="none" 
	d="
M76.924774,90.182594 
	C75.473045,89.178947 74.021309,88.175301 71.990616,86.856003 
	C70.501701,83.008217 68.407608,83.647591 65.995590,84.599472 
	C65.889450,81.405273 65.889450,78.644646 65.889450,75.403763 
	C67.329735,76.138985 68.167717,76.566750 69.005699,76.994522 
	C70.479950,78.548706 71.954208,80.102898 73.806168,82.137634 
	C75.398293,83.808304 76.612724,84.998436 77.896896,86.374725 
	C77.966637,86.560898 78.086380,86.940041 77.799850,87.160080 
	C77.317139,88.314285 77.120956,89.248436 76.924774,90.182594 
z"/>
<path fill="#268DB5" opacity="1.000000" stroke="none" 
	d="
M32.520569,79.102295 
	C32.888039,80.735649 32.790775,82.355850 32.365204,83.612305 
	C31.580132,82.509720 31.166750,81.168633 30.659414,81.132095 
	C27.863760,80.930756 25.042059,80.967415 22.235159,81.075203 
	C18.167387,81.231422 16.727074,84.224739 18.771339,87.825607 
	C20.049294,90.076668 21.066074,92.476006 22.112892,94.891991 
	C22.025732,94.975174 21.851242,95.141357 21.851242,95.141357 
	C17.218454,90.852409 15.748941,85.656548 17.515543,79.089127 
	C22.268085,79.089127 27.161963,79.089127 32.520569,79.102295 
z"/>
<path fill="#021B2B" opacity="1.000000" stroke="none" 
	d="
M69.007065,76.627014 
	C68.167717,76.566750 67.329735,76.138985 65.889450,75.403763 
	C65.889450,78.644646 65.889450,81.405273 65.945129,85.039787 
	C66.073685,88.276566 66.146561,90.639450 66.115234,93.247505 
	C65.720833,93.672096 65.430634,93.851517 65.140427,94.030945 
	C64.821762,87.744324 64.446854,81.459221 64.276291,75.168587 
	C64.260216,74.575951 65.989120,73.330925 66.129585,73.435379 
	C67.198273,74.230095 68.073174,75.285378 69.007065,76.627014 
z"/>
<path fill="#37B8E5" opacity="1.000000" stroke="none" 
	d="
M65.064835,94.478775 
	C65.430634,93.851517 65.720833,93.672096 66.309540,93.247139 
	C66.608040,93.001602 66.996643,92.997559 66.999550,93.417374 
	C67.002457,95.903893 67.002457,97.970596 67.002457,100.037292 
	C67.406982,100.283768 67.811508,100.530243 68.216026,100.776718 
	C69.163612,99.519852 70.111198,98.262993 71.058784,97.006126 
	C71.058784,99.460968 71.058784,101.915817 71.058784,104.316544 
	C65.679306,105.758354 65.046791,105.336143 64.966553,100.348297 
	C64.937492,98.541649 64.979607,96.733864 65.064835,94.478775 
z"/>
<path fill="#4C9FBF" opacity="1.000000" stroke="none" 
	d="
M77.074417,90.477417 
	C77.120956,89.248436 77.317139,88.314285 78.147301,87.320763 
	C79.567444,87.445328 80.353600,87.629257 81.139763,87.813187 
	C81.139763,87.813187 81.261208,87.704987 81.336548,87.734238 
	C81.570755,88.597527 81.469902,89.633583 81.933975,90.230232 
	C83.828018,92.665306 85.894798,94.966011 87.897942,97.316216 
	C87.611900,97.683136 87.325859,98.050056 87.039825,98.416977 
	C83.767899,95.868729 80.495979,93.320480 77.074417,90.477417 
z"/>
<path fill="#27B1E5" opacity="1.000000" stroke="none" 
	d="
M66.996643,92.997559 
	C66.996643,92.997559 66.608040,93.001602 66.413742,93.001968 
	C66.146561,90.639450 66.073685,88.276566 66.051270,85.473373 
	C68.407608,83.647591 70.501701,83.008217 71.672058,86.763626 
	C71.835449,87.404404 71.738419,87.821892 71.258041,88.633743 
	C70.594803,89.690056 70.314911,90.352020 69.766670,91.182419 
	C68.664429,91.899765 67.830536,92.448662 66.996643,92.997559 
z"/>
<path fill="#031A28" opacity="1.000000" stroke="none" 
	d="
M29.066666,105.550827 
	C31.292824,105.134850 33.608768,105.076538 36.352577,104.965439 
	C37.158031,106.789909 37.535622,108.667152 38.001877,110.985191 
	C33.699390,113.181015 35.549500,109.133133 35.172249,107.527534 
	C33.132660,106.978615 31.144556,106.443550 29.066666,105.550827 
z"/>
<path fill="#1D9FD3" opacity="1.000000" stroke="none" 
	d="
M66.999550,93.417374 
	C67.830536,92.448662 68.664429,91.899765 69.767426,91.539825 
	C70.584679,92.845970 71.132820,93.963150 71.680969,95.080322 
	C71.633698,95.622513 71.586426,96.164696 71.298965,96.856506 
	C70.111198,98.262993 69.163612,99.519852 68.216026,100.776718 
	C67.811508,100.530243 67.406982,100.283768 67.002457,100.037292 
	C67.002457,97.970596 67.002457,95.903893 66.999550,93.417374 
z"/>
<path fill="#227DA8" opacity="1.000000" stroke="none" 
	d="
M71.813583,94.644547 
	C71.132820,93.963150 70.584679,92.845970 70.035782,91.371384 
	C70.314911,90.352020 70.594803,89.690056 71.135490,88.931129 
	C71.579590,90.625702 71.762894,92.417229 71.813583,94.644547 
z"/>
<path fill="#021B2B" opacity="1.000000" stroke="none" 
	d="
M77.827148,86.188560 
	C76.612724,84.998436 75.398293,83.808304 74.072029,82.318085 
	C74.828590,82.006516 75.696999,81.995041 76.998856,81.947762 
	C77.940514,82.336220 78.448715,82.760475 78.892311,83.759537 
	C78.494186,84.952415 78.160667,85.570488 77.827148,86.188560 
z"/>
<path fill="#268DB5" opacity="1.000000" stroke="none" 
	d="
M23.959637,95.967606 
	C23.927479,96.226692 23.895321,96.485771 23.760059,97.123405 
	C23.105059,96.913795 22.553164,96.325645 21.926254,95.439423 
	C21.851242,95.141357 22.025732,94.975174 22.367887,94.986618 
	C23.126574,95.321243 23.543104,95.644424 23.959637,95.967606 
z"/>
<path fill="#031A28" opacity="1.000000" stroke="none" 
	d="
M35.949848,102.785599 
	C35.636578,102.978867 35.378319,102.799080 35.207722,102.231087 
	C35.520004,102.066635 35.756496,102.256523 35.949848,102.785599 
z"/>
<path fill="#010101" opacity="1.000000" stroke="none" 
	d="
M30.282518,88.136337 
	C30.285410,87.978470 30.541794,87.807831 30.908085,87.800728 
	C30.857330,88.017365 30.696671,88.070465 30.282518,88.136337 
z"/>
<path fill="#010101" opacity="1.000000" stroke="none" 
	d="
M145.215363,90.650352 
	C144.650162,90.947037 144.290390,90.824471 143.924179,90.340538 
	C144.418747,90.063148 144.919769,90.147125 145.215363,90.650352 
z"/>
<path fill="#010101" opacity="1.000000" stroke="none" 
	d="
M77.896896,86.374725 
	C78.160667,85.570488 78.494186,84.952415 78.953995,84.006363 
	C79.938362,84.859138 80.796440,86.039886 81.397141,87.516907 
	C80.353600,87.629257 79.567444,87.445328 78.433830,87.100723 
	C78.086380,86.940041 77.966637,86.560898 77.896896,86.374725 
z"/>
<path fill="#20A5DA" opacity="1.000000" stroke="none" 
	d="
M24.296886,95.951569 
	C23.543104,95.644424 23.126574,95.321243 22.455048,94.903435 
	C21.066074,92.476006 20.049294,90.076668 18.771339,87.825607 
	C16.727074,84.224739 18.167387,81.231422 22.235159,81.075203 
	C25.042059,80.967415 27.863760,80.930756 30.659414,81.132095 
	C31.166750,81.168633 31.580132,82.509720 32.007725,83.596512 
	C29.485292,84.368629 26.975031,84.720322 24.517443,85.296638 
	C24.157160,85.381126 24.047390,86.533867 23.976292,87.839600 
	C24.873001,89.207672 25.615128,89.928482 26.357254,90.649292 
	C26.357256,90.649292 26.154060,90.629539 26.231483,90.984550 
	C26.860373,92.214394 27.411837,93.089233 27.963301,93.964066 
	C26.853579,94.621223 25.743858,95.278381 24.296886,95.951569 
z"/>
<path fill="#268DB5" opacity="1.000000" stroke="none" 
	d="
M28.225515,93.971756 
	C27.411837,93.089233 26.860373,92.214394 26.329168,91.014053 
	C27.182909,91.585052 28.016390,92.481560 28.931038,93.685669 
	C28.837378,93.988655 28.662554,93.984047 28.225515,93.971756 
z"/>
<path fill="#268DB5" opacity="1.000000" stroke="none" 
	d="
M26.300777,90.341331 
	C25.615128,89.928482 24.873001,89.207672 24.139290,88.136345 
	C24.846571,88.535011 25.545437,89.284187 26.300777,90.341331 
z"/>
</svg>